<?xml version="1.0" encoding="UTF-8" standalone="no"?>
<!DOCTYPE svg PUBLIC "-//W3C//DTD SVG 20010904//EN"
              "http://www.w3.org/TR/2001/REC-SVG-20010904/DTD/svg10.dtd">

<svg xmlns="http://www.w3.org/2000/svg"
     width="49.7354mm" height="135.45mm"
     viewBox="0 0 94 256">
  <path id="Выделение"
        fill="white" stroke="black" stroke-width="1"
        d="M 44.00,0.00
           C 45.74,0.06 47.82,-0.11 49.30,0.99
             50.94,2.21 52.23,6.08 53.00,8.00
             53.00,8.00 59.40,24.00 59.40,24.00
             59.40,24.00 85.00,88.00 85.00,88.00
             86.97,92.91 94.29,108.66 93.40,113.00
             92.85,115.69 88.34,122.37 86.68,125.00
             86.68,125.00 68.76,154.00 68.76,154.00
             66.14,160.20 72.08,162.74 73.81,168.00
             74.94,171.42 70.39,182.00 67.51,183.98
             65.91,185.07 63.83,184.94 62.00,185.00
             62.00,185.00 62.00,210.00 62.00,210.00
             62.08,222.28 72.01,224.70 68.47,240.00
             63.00,263.67 26.12,260.67 25.04,236.00
             24.37,220.79 31.79,222.29 32.00,211.00
             32.00,211.00 32.00,185.00 32.00,185.00
             30.21,184.94 28.19,185.09 26.63,184.01
             22.98,181.45 19.22,171.29 20.85,167.00
             23.16,160.92 28.48,159.86 25.48,153.96
             25.48,153.96 7.42,125.00 7.42,125.00
             5.47,121.87 0.92,115.41 0.57,112.00
             0.26,108.89 2.61,103.96 3.80,101.00
             3.80,101.00 12.40,80.00 12.40,80.00
             12.40,80.00 33.20,28.00 33.20,28.00
             33.20,28.00 44.00,0.00 44.00,0.00 Z
           M 44.00,21.00
           C 44.00,21.00 30.00,54.00 30.00,54.00
             30.00,54.00 8.00,110.00 8.00,110.00
             8.00,110.00 44.00,123.00 44.00,123.00
             44.00,123.00 44.00,21.00 44.00,21.00 Z
           M 51.00,21.00
           C 49.12,25.73 50.00,46.55 50.00,53.00
             50.00,53.00 50.00,123.00 50.00,123.00
             50.00,123.00 86.00,110.00 86.00,110.00
             86.00,110.00 74.20,79.00 74.20,79.00
             74.20,79.00 51.00,21.00 51.00,21.00 Z
           M 82.00,119.00
           C 82.00,119.00 57.00,127.66 57.00,127.66
             57.00,127.66 47.00,130.58 47.00,130.58
             47.00,130.58 36.00,127.19 36.00,127.19
             36.00,127.19 12.00,119.00 12.00,119.00
             12.00,119.00 26.81,143.00 26.81,143.00
             26.81,143.00 34.21,152.98 34.21,152.98
             34.21,152.98 42.00,154.00 42.00,154.00
             42.00,154.00 59.82,152.98 59.82,152.98
             59.82,152.98 67.32,143.00 67.32,143.00
             67.32,143.00 82.00,119.00 82.00,119.00 Z
           M 65.00,167.00
           C 65.00,167.00 59.83,161.60 59.83,161.60
             59.83,161.60 53.00,161.00 53.00,161.00
             53.00,161.00 33.48,161.99 33.48,161.99
             33.48,161.99 30.00,167.00 30.00,167.00
             30.00,167.00 65.00,167.00 65.00,167.00 Z
           M 66.00,173.00
           C 66.00,173.00 28.00,173.00 28.00,173.00
             28.00,173.00 32.21,178.40 32.21,178.40
             32.21,178.40 43.00,179.00 43.00,179.00
             43.00,179.00 62.61,177.98 62.61,177.98
             62.61,177.98 66.00,173.00 66.00,173.00 Z
           M 56.00,185.00
           C 56.00,185.00 39.00,185.00 39.00,185.00
             39.00,185.00 39.00,189.00 39.00,189.00
             39.00,189.00 56.00,189.00 56.00,189.00
             56.00,189.00 56.00,185.00 56.00,185.00 Z
           M 56.00,195.00
           C 56.00,195.00 39.00,195.00 39.00,195.00
             39.00,195.00 39.00,202.00 39.00,202.00
             39.00,202.00 56.00,202.00 56.00,202.00
             56.00,202.00 56.00,195.00 56.00,195.00 Z
           M 56.00,209.00
           C 56.00,209.00 39.00,209.00 39.00,209.00
             39.00,209.00 39.00,213.00 39.00,213.00
             47.41,211.89 47.64,211.29 56.00,214.00
             56.00,214.00 56.00,209.00 56.00,209.00 Z
           M 43.00,219.39
           C 22.63,225.96 32.27,253.48 50.00,249.47
             63.32,246.46 67.28,229.84 55.96,221.65
             51.87,218.69 47.76,218.75 43.00,219.39 Z" />
</svg>
