<?xml version="1.0" encoding="UTF-8" standalone="no"?>
<!DOCTYPE svg PUBLIC "-//W3C//DTD SVG 20010904//EN"
              "http://www.w3.org/TR/2001/REC-SVG-20010904/DTD/svg10.dtd">

<svg xmlns="http://www.w3.org/2000/svg"
     width="401.958mm" height="306.695mm"
     viewBox="0 0 1519 1159">
  <path id="Выделение"
        fill="black" stroke="black" stroke-width="1"
        d="M 125.00,919.00
           C 127.21,911.24 134.80,898.90 138.75,891.00
             138.75,891.00 171.22,829.00 171.22,829.00
             171.22,829.00 214.26,746.00 214.26,746.00
             214.26,746.00 267.74,644.00 267.74,644.00
             267.74,644.00 364.74,458.00 364.74,458.00
             364.74,458.00 398.69,393.00 398.69,393.00
             412.30,367.84 422.22,346.92 439.04,323.00
             439.04,323.00 451.35,307.00 451.35,307.00
             451.35,307.00 465.30,289.00 465.30,289.00
             465.30,289.00 474.91,279.00 474.91,279.00
             505.48,246.18 531.71,223.93 571.00,202.14
             592.14,190.42 605.04,183.86 628.00,175.69
             628.00,175.69 670.00,163.23 670.00,163.23
             670.00,163.23 693.00,158.80 693.00,158.80
             693.00,158.80 711.00,155.29 711.00,155.29
             711.00,155.29 726.00,153.72 726.00,153.72
             726.00,153.72 754.00,150.91 754.00,150.91
             754.00,150.91 766.00,150.00 766.00,150.00
             766.00,150.00 782.00,150.00 782.00,150.00
             782.00,150.00 796.00,149.01 796.00,149.01
             796.00,149.01 811.00,150.00 811.00,150.00
             811.00,150.00 820.00,150.00 820.00,150.00
             820.00,150.00 830.00,151.04 830.00,151.04
             830.00,151.04 839.00,151.04 839.00,151.04
             839.00,151.04 886.00,157.58 886.00,157.58
             946.67,168.52 1001.54,189.17 1055.00,219.85
             1076.34,232.10 1104.41,251.86 1123.00,267.87
             1123.00,267.87 1140.00,283.00 1140.00,283.00
             1142.39,285.32 1145.40,288.80 1149.00,288.80
             1152.29,288.79 1162.60,282.21 1166.00,280.28
             1166.00,280.28 1206.00,257.42 1206.00,257.42
             1250.89,231.68 1295.79,205.02 1342.00,181.75
             1359.02,173.18 1375.79,157.22 1395.00,157.00
             1425.76,156.66 1449.60,186.69 1435.67,216.00
             1433.18,221.25 1428.40,226.81 1424.00,230.56
             1407.26,244.82 1375.26,258.28 1355.00,269.85
             1306.69,297.42 1258.43,324.75 1209.00,350.26
             1209.00,350.26 1157.00,379.00 1157.00,379.00
             1152.51,381.55 1134.73,391.98 1131.00,392.57
             1126.24,393.32 1124.43,390.41 1121.98,386.98
             1121.98,386.98 1109.20,370.00 1109.20,370.00
             1091.15,347.44 1068.79,327.42 1045.00,311.02
             1004.84,283.34 951.26,258.35 904.00,245.88
             904.00,245.88 875.00,239.80 875.00,239.80
             850.50,234.90 839.81,233.61 815.00,231.91
             815.00,231.91 804.00,231.00 804.00,231.00
             804.00,231.00 773.00,231.00 773.00,231.00
             773.00,231.00 761.00,231.91 761.00,231.91
             726.42,234.28 691.58,239.61 659.00,252.06
             659.00,252.06 638.00,261.69 638.00,261.69
             618.97,270.43 600.21,280.52 584.00,293.92
             584.00,293.92 559.00,314.29 559.00,314.29
             559.00,314.29 529.17,344.00 529.17,344.00
             503.38,372.66 477.15,414.92 463.42,451.00
             452.05,480.90 444.13,505.97 440.28,538.00
             440.28,538.00 438.83,557.00 438.83,557.00
             438.83,557.00 437.00,585.00 437.00,585.00
             437.00,585.00 437.96,595.00 437.96,595.00
             437.96,595.00 437.96,606.00 437.96,606.00
             437.96,606.00 442.59,643.00 442.59,643.00
             450.41,689.62 469.10,735.58 496.75,774.00
             496.75,774.00 524.09,805.83 524.09,805.83
             524.09,805.83 543.00,822.28 543.00,822.28
             562.53,839.26 585.97,853.82 610.00,863.55
             610.00,863.55 622.00,867.69 622.00,867.69
             622.00,867.69 641.00,874.26 641.00,874.26
             670.00,882.29 700.10,883.35 730.00,883.00
             744.75,882.82 785.49,875.83 801.00,872.42
             851.23,861.39 898.08,843.69 940.00,813.42
             940.00,813.42 956.00,801.68 956.00,801.68
             956.00,801.68 965.00,793.17 965.00,793.17
             992.82,768.00 1011.68,742.47 1024.30,707.00
             1030.26,690.26 1033.03,666.77 1033.00,649.00
             1033.00,649.00 1032.00,630.00 1032.00,630.00
             1031.88,619.74 1027.59,598.25 1024.88,588.00
             1008.71,526.66 972.26,477.88 912.00,454.20
             889.64,445.42 865.71,442.10 842.00,439.83
             842.00,439.83 814.00,438.18 814.00,438.18
             814.00,438.18 796.00,439.00 796.00,439.00
             788.16,439.10 773.93,441.15 766.00,442.58
             730.69,448.94 700.19,459.92 677.00,489.00
             672.09,495.17 665.73,504.83 662.51,512.00
             656.96,524.36 651.70,542.45 651.10,556.00
             651.10,556.00 652.10,565.00 652.10,565.00
             652.10,565.00 652.10,573.00 652.10,573.00
             656.57,605.90 675.92,638.16 704.00,655.95
             717.08,664.23 728.63,668.54 744.00,670.16
             746.79,670.46 748.06,670.90 751.00,670.68
             778.35,668.62 802.67,655.23 819.91,634.00
             835.58,614.69 839.67,589.36 870.00,589.00
             870.00,589.00 874.00,589.00 874.00,589.00
             899.12,589.12 919.94,611.70 913.25,637.00
             908.70,654.16 895.92,674.13 883.71,686.83
             883.71,686.83 875.00,695.00 875.00,695.00
             875.00,695.00 861.00,708.54 861.00,708.54
             840.39,725.50 814.05,740.59 788.00,747.11
             776.80,749.90 769.25,750.32 758.00,751.09
             758.00,751.09 748.00,751.96 748.00,751.96
             748.00,751.96 733.00,750.15 733.00,750.15
             716.76,748.21 707.63,746.91 692.00,740.94
             676.23,734.91 653.86,722.40 641.00,711.68
             641.00,711.68 632.00,703.17 632.00,703.17
             632.00,703.17 619.09,691.00 619.09,691.00
             595.97,666.17 579.85,632.96 572.58,600.00
             572.58,600.00 569.10,584.00 569.10,584.00
             569.10,584.00 569.10,575.00 569.10,575.00
             569.10,575.00 568.00,554.00 568.00,554.00
             568.00,554.00 568.83,545.00 568.83,545.00
             570.08,531.99 570.39,527.96 573.63,515.00
             577.38,499.98 580.80,489.00 587.81,475.00
             587.81,475.00 596.19,461.00 596.19,461.00
             596.19,461.00 604.92,447.00 604.92,447.00
             634.10,407.20 676.34,378.71 724.00,366.15
             724.00,366.15 742.00,362.75 742.00,362.75
             772.75,357.41 796.18,357.95 827.00,358.00
             827.00,358.00 846.00,359.00 846.00,359.00
             846.00,359.00 856.00,359.91 856.00,359.91
             871.44,360.97 877.88,362.02 893.00,365.00
             893.00,365.00 911.00,368.47 911.00,368.47
             931.05,373.47 957.10,383.64 975.00,393.87
             975.00,393.87 993.00,405.31 993.00,405.31
             1005.77,413.52 1017.98,422.56 1028.91,433.17
             1028.91,433.17 1035.09,440.00 1035.09,440.00
             1035.09,440.00 1050.54,457.00 1050.54,457.00
             1075.92,488.14 1091.76,526.48 1101.88,565.00
             1107.83,587.61 1112.73,610.53 1113.00,634.00
             1113.00,634.00 1114.00,648.00 1114.00,648.00
             1114.11,671.46 1110.02,703.53 1103.28,726.00
             1103.28,726.00 1091.49,758.00 1091.49,758.00
             1091.49,758.00 1084.25,772.00 1084.25,772.00
             1067.17,806.16 1045.52,832.72 1017.00,858.05
             1017.00,858.05 996.00,876.10 996.00,876.10
             979.91,888.32 962.82,898.38 945.00,907.78
             945.00,907.78 926.00,917.69 926.00,917.69
             866.79,944.81 796.92,958.24 732.00,959.00
             732.00,959.00 717.00,960.00 717.00,960.00
             717.00,960.00 681.00,960.00 681.00,960.00
             681.00,960.00 662.00,959.00 662.00,959.00
             662.00,959.00 652.00,958.09 652.00,958.09
             652.00,958.09 612.00,955.17 612.00,955.17
             612.00,955.17 578.00,952.91 578.00,952.91
             578.00,952.91 518.00,948.09 518.00,948.09
             518.00,948.09 272.00,929.91 272.00,929.91
             272.00,929.91 165.00,921.91 165.00,921.91
             165.00,921.91 125.00,919.00 125.00,919.00 Z
           M 361.00,649.00
           C 361.00,649.00 341.80,682.00 341.80,682.00
             341.80,682.00 331.33,699.00 331.33,699.00
             331.33,699.00 312.75,735.00 312.75,735.00
             312.75,735.00 292.26,774.00 292.26,774.00
             292.26,774.00 281.69,795.00 281.69,795.00
             281.69,795.00 263.78,830.00 263.78,830.00
             262.52,832.68 258.24,841.08 259.35,843.69
             260.73,846.93 268.02,846.82 271.00,847.09
             271.00,847.09 281.00,848.91 281.00,848.91
             281.00,848.91 305.00,850.28 305.00,850.28
             305.00,850.28 346.00,853.09 346.00,853.09
             346.00,853.09 403.00,857.09 403.00,857.09
             403.00,857.09 424.00,858.95 424.00,858.95
             424.00,858.95 441.00,858.95 441.00,858.95
             446.91,859.01 453.29,859.62 459.00,858.00
             459.00,858.00 440.34,832.00 440.34,832.00
             425.65,810.41 413.68,791.43 401.97,768.00
             391.83,747.73 384.08,726.45 376.96,705.00
             376.96,705.00 370.21,688.00 370.21,688.00
             370.21,688.00 364.80,667.00 364.80,667.00
             364.80,667.00 361.00,649.00 361.00,649.00 Z" />
</svg>
